<svg width="24" height="24" viewBox="0 0 24 24" fill="none" xmlns="http://www.w3.org/2000/svg">
<g clip-path="url(#clip0_2256_781)">
<path d="M15.4219 12.4219L12 19.0781C9.85359 19.0781 7.82719 18.487 6.29344 17.4131C4.68375 16.2863 3.79688 14.7633 3.79688 13.125C3.79688 11.4867 4.68375 9.96375 6.29344 8.83688C7.82719 7.76297 9.85359 7.17188 12 7.17188L15.4219 12.4219Z" fill="#FF6C6C"/>
<path d="M20.2031 13.125C20.2031 14.7633 19.3162 16.2863 17.7066 17.4131C16.1728 18.487 14.1464 19.0781 12 19.0781V7.17188C14.1464 7.17188 16.1728 7.76297 17.7066 8.83688C19.3162 9.96375 20.2031 11.4867 20.2031 13.125Z" fill="#FF4949"/>
<path d="M15.6014 15.4739L12 20.2031H4.49998C4.15779 20.2031 3.86529 19.9566 3.80717 19.6195L1.93217 8.74453C1.88061 8.44734 2.02498 8.15062 2.28983 8.00672C2.55514 7.86328 2.88233 7.90453 3.10358 8.10984L7.72358 12.3998L11.4 6.38344C11.528 6.17437 11.7548 6.04688 12 6.04688L15.6014 15.4739Z" fill="#FFE470"/>
<path d="M22.0678 8.74453L20.1928 19.6195C20.1347 19.9566 19.8422 20.2031 19.5 20.2031H12V6.04688C12.2452 6.04688 12.472 6.17437 12.6 6.38344L16.2764 12.3998L20.8964 8.10984C21.1177 7.90453 21.4448 7.86281 21.7102 8.00672C21.975 8.15062 22.1194 8.44734 22.0678 8.74453Z" fill="#FFD400"/>
<path d="M14.6677 21.7734L12 24H3.375C2.98687 24 2.67188 23.685 2.67188 23.2969V20.25C2.67188 19.8619 2.98687 19.5469 3.375 19.5469H12L14.6677 21.7734Z" fill="#FF6C6C"/>
<path d="M21.3281 20.25V23.2969C21.3281 23.685 21.0131 24 20.625 24H12V19.5469H20.625C21.0131 19.5469 21.3281 19.8619 21.3281 20.25Z" fill="#FF4949"/>
<path d="M6.75097 17.5781C6.36265 17.5781 6.04761 17.2633 6.04761 16.875C6.04761 16.4867 6.36219 16.1719 6.7505 16.1719H6.75097C7.13933 16.1719 7.45409 16.4867 7.45409 16.875C7.45409 17.2633 7.13933 17.5781 6.75097 17.5781Z" fill="#C1FFA1"/>
<path d="M13.5947 15L12 17.5781C10.785 17.5781 9.79688 16.4217 9.79688 15C9.79688 13.5783 10.785 12.4219 12 12.4219L13.5947 15Z" fill="#C1FFA1"/>
<path d="M14.2031 15C14.2031 16.4217 13.215 17.5781 12 17.5781V12.4219C13.215 12.4219 14.2031 13.5783 14.2031 15Z" fill="#90E36A"/>
<path d="M17.251 17.5781C16.8627 17.5781 16.5476 17.2633 16.5476 16.875C16.5476 16.4867 16.8622 16.1719 17.2505 16.1719H17.251C17.6393 16.1719 17.9541 16.4867 17.9541 16.875C17.9541 17.2633 17.6393 17.5781 17.251 17.5781Z" fill="#90E36A"/>
<path d="M2.20312 6.32812C3.41988 6.32812 4.40625 5.34175 4.40625 4.125C4.40625 2.90825 3.41988 1.92188 2.20312 1.92188C0.986373 1.92188 0 2.90825 0 4.125C0 5.34175 0.986373 6.32812 2.20312 6.32812Z" fill="#FFE470"/>
<path d="M13.3753 2.03906L12 4.40625C10.785 4.40625 9.79688 3.41812 9.79688 2.20312C9.79688 0.988125 10.785 0 12 0L13.3753 2.03906Z" fill="#FFE470"/>
<path d="M14.2031 2.20312C14.2031 3.41812 13.215 4.40625 12 4.40625V0C13.215 0 14.2031 0.988125 14.2031 2.20312Z" fill="#FFD400"/>
<path d="M21.7969 6.32812C23.0136 6.32812 24 5.34175 24 4.125C24 2.90825 23.0136 1.92188 21.7969 1.92188C20.5801 1.92188 19.5938 2.90825 19.5938 4.125C19.5938 5.34175 20.5801 6.32812 21.7969 6.32812Z" fill="#FFD400"/>
</g>
<defs>
<clipPath id="clip0_2256_781">
<rect width="24" height="24" fill="white"/>
</clipPath>
</defs>
</svg>
